<?xml version="1.0" encoding="UTF-8" standalone="no"?>
<svg width="28px" height="32px" viewBox="0 0 28 32" version="1.1" xmlns="http://www.w3.org/2000/svg" xmlns:xlink="http://www.w3.org/1999/xlink">
    <!-- Generator: Sketch 3.8.3 (29802) - http://www.bohemiancoding.com/sketch -->
    <title>Group 13</title>
    <desc>Created with Sketch.</desc>
    <defs>
        <path d="M0,2.00174332 C0,0.89621101 0.890925393,0 1.99742191,0 L19,0 L28,9 L28,29.9991358 C28,31.1041826 27.1001025,32 26.0087557,32 L1.99124431,32 C0.891510444,32 0,31.1107383 0,29.9982567 L0,2.00174332 Z" id="path-1"></path>
        <mask id="mask-2" maskContentUnits="userSpaceOnUse" maskUnits="objectBoundingBox" x="0" y="0" width="28" height="32" fill="white">
            <use xlink:href="#path-1"></use>
        </mask>
        <rect id="path-3" x="5" y="17" width="18" height="2"></rect>
        <mask id="mask-4" maskContentUnits="userSpaceOnUse" maskUnits="objectBoundingBox" x="0" y="0" width="18" height="2" fill="white">
            <use xlink:href="#path-3"></use>
        </mask>
        <rect id="path-5" x="5" y="21" width="18" height="2"></rect>
        <mask id="mask-6" maskContentUnits="userSpaceOnUse" maskUnits="objectBoundingBox" x="0" y="0" width="18" height="2" fill="white">
            <use xlink:href="#path-5"></use>
        </mask>
        <rect id="path-7" x="5" y="25" width="14" height="2"></rect>
        <mask id="mask-8" maskContentUnits="userSpaceOnUse" maskUnits="objectBoundingBox" x="0" y="0" width="14" height="2" fill="white">
            <use xlink:href="#path-7"></use>
        </mask>
        <rect id="path-9" x="17" y="13" width="6" height="2"></rect>
        <mask id="mask-10" maskContentUnits="userSpaceOnUse" maskUnits="objectBoundingBox" x="0" y="0" width="6" height="2" fill="white">
            <use xlink:href="#path-9"></use>
        </mask>
    </defs>
    <g id="website-2" stroke="none" stroke-width="1" fill="none" fill-rule="evenodd">
        <g id="Artboard-7" transform="translate(-1037.000000, -382.000000)">
            <g id="Group-13" transform="translate(1037.000000, 382.000000)">
                <use id="Rectangle-47" stroke="#444444" mask="url(#mask-2)" stroke-width="4" stroke-linecap="square" stroke-linejoin="round" xlink:href="#path-1"></use>
                <rect id="Rectangle-50" fill="#444444" x="5" y="5" width="10" height="10"></rect>
                <use id="Rectangle-51" stroke="#444444" mask="url(#mask-4)" stroke-width="2" fill="#D8D8D8" xlink:href="#path-3"></use>
                <use id="Rectangle-51-Copy" stroke="#444444" mask="url(#mask-6)" stroke-width="2" fill="#D8D8D8" xlink:href="#path-5"></use>
                <use id="Rectangle-51-Copy-2" stroke="#444444" mask="url(#mask-8)" stroke-width="2" fill="#D8D8D8" xlink:href="#path-7"></use>
                <use id="Rectangle-51-Copy-3" stroke="#444444" mask="url(#mask-10)" stroke-width="2" fill="#D8D8D8" xlink:href="#path-9"></use>
                <polyline id="Path-94" stroke="#444444" stroke-width="2" points="19 1 19 9.08755767 27.096037 9.08755767"></polyline>
            </g>
        </g>
    </g>
</svg>